# xmcd CD database file
#
# Track frame offsets:
#	150
#	23116
#	38376
#	59172
#	79497
#	103565
#
# Disc length: 1696 seconds
#
# Revision: 1
# Processed by: cddbd v1.5.2PL0 Copyright (c) Steve Scherf et al.
# Submitted via: CDex 1.70beta2
#
DISCID=46069e06
DTITLE=AAA - Eighth Wonder CD-2
DYEAR=2013
DGENRE=JPop
TTITLE0=Memory Lane
TTITLE1=TRAP
TTITLE2=Believe
TTITLE3=drama
TTITLE4=Eighth Wonder (Wonder Land Remix)
TTITLE5=恋音と雨空 (Acoustic Version)
EXTD=YEAR: 2013
EXTT0=
EXTT1=
EXTT2=
EXTT3=
EXTT4=
EXTT5=
PLAYORDER=
